<svg height="100%" version="1.1" width="100%" xmlns="http://www.w3.org/2000/svg" preserveAspectRatio="xMidYMid meet" viewBox="0 0 600 442" xmlns:xlink="http://www.w3.org/1999/xlink"><desc>Created with Snap</desc><defs/><g id="root" contentwidth="502.9" contentheight="143.6">
          <rect class="background" height="2000%" width="2000%" y="-1000%" x="-1000%" style="" fill="#ffffff"/>
          <rect class="watermarklayer" height="100%" width="100%" y="0" x="0" style="" fill="none"/>
          <g class="content" id="content" transform="matrix(1,0,0,1,82.05,238.2)">
            <g class="icon" style="mask: url(#mask);">
            <svg height="143.6" version="1.1" width="502.8999999999999" xmlns="http://www.w3.org/2000/svg" x="-33.49999999999997" y="-89"><desc>Created with Snap</desc><defs/><svg xmlns:xlink="http://www.w3.org/1999/xlink" version="1.1" xmlns="http://www.w3.org/2000/svg" viewBox="0 0 502.9 143.6"><defs/><g><path fill="none" stroke="#000000" paint-order="fill stroke markers" d=" M 251.45 42.5 L 251.45 22.5 L 12.5 22.5 L 12.5 121.1 L 251.45 121.1 L 251.45 101.1" stroke-miterlimit="10" stroke-width="6" style=""/></g><desc>Created with Snap</desc></svg></svg></g>
            <g id="icon_name_and_slogan_gap">
            </g>
            <g class="name_and_slogan" id="name_and_slogan_id">
              <g class="name"><path d="M4 3.2 L4 -51.5 L54.6 -51.5 L54.6 -46.2 L15 -46.2 L15 -2.1 L44.3 -2.1 L44.3 -24.2 L28 -24.2 L28 -29.5 L54.4 -29.5 L54.4 -3.2 Q54.4 0.1 52.5 1.7 Q50.6 3.2 46.4 3.2 L4 3.2 Z M63.9 -7.7 L75.6 -7.7 L75.6 4 L63.9 4 L63.9 -7.7 Z M98.9 -23.2 L98.9 2.1 L88.2 2.1 L88.2 -51.4 L98.9 -51.4 L98.9 -28.6 L123.8 -28.6 L123.8 -51.4 L134.8 -51.4 L134.8 2.1 L123.8 2.1 L123.8 -23.2 L98.9 -23.2 Z M144.2 -7.7 L156 -7.7 L156 4 L144.2 4 L144.2 -7.7 Z M207.8 -0.6 Q205.6 1.9 201 1.9 L169.1 1.9 L169.1 -3.3 L199.3 -3.3 L199.3 -22.1 L177.4 -22.1 Q173.2 -22.1 171.1 -23.9 Q168.9 -25.7 168.9 -29.6 L168.9 -44.4 Q168.9 -47.5 171.3 -49.4 Q173.7 -51.3 177.1 -51.3 L209.2 -51.3 Q209.2 -48.8 208.1 -47.5 Q207 -46.2 204.4 -46.2 L179.3 -46.2 L179.3 -27.3 L201 -27.3 Q205.5 -27.3 207.6 -25.1 Q209.7 -23 209.7 -19.2 L209.7 -7.5 Q209.7 -5.5 209.3 -3.7 Q208.8 -1.9 207.8 -0.6 Z M256.5 -37 L256.5 -8.9 Q256.5 -0.1 248.5 -0.1 L228.8 -0.1 L228.8 17.1 L218.2 17.1 L218.2 -37 L256.5 -37 Z M228.6 -31.8 L228.6 -5.3 L246.2 -5.3 L246.2 -31.8 L228.6 -31.8 Z M273.2 -3.1 L301.4 -3.1 Q301.4 -0.4 300.3 0.8 Q299.2 1.9 296.6 1.9 L263 1.9 L263 -36.9 L301.2 -36.9 L301.2 -21 Q301.2 -17.8 298.7 -15.8 Q296.1 -13.8 292.9 -13.8 L273.2 -13.8 L273.2 -3.1 Z M291.5 -18.6 L291.5 -32 L273.5 -32 L273.5 -18.6 L291.5 -18.6 Z M316.9 -3.1 L345.1 -3.1 Q345.1 -0.4 344 0.8 Q342.9 1.9 340.3 1.9 L306.7 1.9 L306.7 -36.9 L344.9 -36.9 L344.9 -21 Q344.9 -17.8 342.4 -15.8 Q339.8 -13.8 336.6 -13.8 L316.9 -13.8 L316.9 -3.1 Z M335.2 -18.6 L335.2 -32 L317.2 -32 L317.2 -18.6 L335.2 -18.6 Z M359.8 1.9 Q351.8 1.9 351.8 -6.9 L351.8 -32.1 L379.8 -32.1 L379.8 -51.3 L390.2 -51.3 L390.2 1.9 L359.8 1.9 Z M379.8 -3.2 L379.8 -27.1 L362.2 -27.1 L362.2 -3.2 L379.8 -3.2 Z M397.9 10.7 L397.9 5.5 L422.2 5.5 L422.2 -4.8 L397.9 -4.8 L397.9 -37 L406.9 -37 L406.9 -9.8 L422.2 -9.8 L422.2 -37 L431.9 -37 L431.9 1.8 Q431.9 6 430 8.3 Q428 10.7 424.1 10.7 L397.9 10.7 Z" style="" fill="#333333" id="namepathdata"/></g>
              <g class="slogan"/>
            </g>
            <g class="border">
            </g>
          </g>
          <defs id="defs">
            <mask xmlns="http://www.w3.org/2000/svg" id="mask">
                <rect id="showAll" fill="white" x="-33.49999999999997" y="-89" width="502.8999999999999" height="143.6"/>
                <rect id="hideNameBg" fill="black" x="4" y="-51.5" width="427.9" height="68.6" stroke-width="2" stroke="black" style="stroke-width: 5;"/>
                <rect id="hideSloganBg" fill="black" x="0" y="0" width="0" height="0" stroke-width="2" stroke="black"/>
            </mask>
          
          </defs>
        </g>
        </svg>